<?xml version="1.0" standalone="no"?>
<!DOCTYPE svg PUBLIC "-//W3C//DTD SVG 20010904//EN"
 "http://www.w3.org/TR/2001/REC-SVG-20010904/DTD/svg10.dtd">
<svg version="1.0" xmlns="http://www.w3.org/2000/svg"
 width="1204.000000pt" height="982.000000pt" viewBox="0 0 1204.000000 982.000000"
 preserveAspectRatio="xMidYMid meet">

<g transform="translate(0.000000,982.000000) scale(0.100000,-0.100000)"
fill="#000000" stroke="none">
<path d="M0 4910 l0 -4910 6020 0 6020 0 0 4910 0 4910 -6020 0 -6020 0 0
-4910z m8307 4127 c107 -36 182 -119 226 -250 21 -62 21 -68 21 -1317 -1
-1345 1 -1294 -49 -1390 -28 -55 -96 -120 -156 -151 -95 -47 -170 -52 -780
-44 -300 4 -613 4 -695 0 l-149 -7 -50 -52 c-55 -55 -200 -214 -339 -369 -131
-145 -138 -147 -229 -44 -79 89 -219 248 -270 307 -21 25 -63 71 -94 103 -54
56 -57 57 -112 58 -31 1 -368 1 -749 0 -407 0 -722 3 -763 9 -159 23 -280 131
-318 283 -16 66 -26 2426 -10 2542 14 109 50 185 113 242 55 50 112 79 179 93
23 4 971 7 2107 6 1947 -1 2068 -2 2117 -19z"/>
<path d="M5118 8570 c-25 -16 -161 -148 -302 -292 -316 -324 -317 -326 -217
-445 92 -110 516 -521 542 -525 98 -15 183 79 148 164 -7 18 -81 102 -164 186
-82 85 -151 158 -153 163 -2 5 551 10 1347 11 1345 3 1350 3 1377 24 65 48 84
117 50 182 -35 67 34 63 -1124 56 -576 -4 -1177 -3 -1335 1 l-288 7 143 147
c159 161 177 191 159 251 -12 42 -61 90 -91 90 -10 0 -25 2 -32 5 -8 3 -34 -8
-60 -25z"/>
<path d="M7049 7544 c-49 -20 -74 -68 -66 -123 7 -52 44 -99 202 -253 66 -65
115 -118 110 -118 -6 0 -597 -1 -1315 -2 -1228 -3 -1307 -4 -1333 -21 -59 -38
-78 -117 -44 -183 36 -69 -59 -65 1401 -57 808 4 1316 3 1316 -3 0 -5 -66 -74
-146 -154 -80 -80 -152 -157 -160 -172 -8 -15 -14 -46 -14 -69 0 -33 6 -47 34
-75 27 -27 42 -34 74 -34 23 0 53 5 69 11 34 13 492 466 533 528 21 32 30 57
30 87 0 38 -7 49 -74 125 -41 46 -172 182 -293 302 -239 238 -248 244 -324
211z"/>
</g>
</svg>
